<?xml version="1.0" standalone="no"?>
<!DOCTYPE svg PUBLIC "-//W3C//DTD SVG 20010904//EN"
 "http://www.w3.org/TR/2001/REC-SVG-20010904/DTD/svg10.dtd">
<svg version="1.0" xmlns="http://www.w3.org/2000/svg"
 width="1536.000000pt" height="1024.000000pt" viewBox="0 0 1536.000000 1024.000000"
 preserveAspectRatio="xMidYMid meet">

<g transform="translate(0.000000,1024.000000) scale(0.100000,-0.100000)"
fill="#000000" stroke="none">
<path d="M3559 7105 c-278 -38 -547 -150 -770 -321 -468 -359 -721 -898 -695
-1479 25 -568 278 -1023 762 -1371 162 -116 433 -240 644 -294 193 -50 461
-70 660 -50 478 48 907 306 1172 705 182 275 248 528 248 956 0 365 -51 614
-180 885 -67 141 -125 234 -222 356 -260 327 -666 556 -1088 613 -129 18 -401
18 -531 0z m606 -198 c387 -86 740 -328 952 -654 199 -304 277 -622 268 -1088
-5 -266 -31 -405 -105 -578 -152 -352 -457 -626 -834 -751 -270 -89 -607 -97
-872 -20 -232 67 -346 193 -332 368 3 34 16 84 29 111 30 66 152 186 253 250
303 193 388 258 504 389 153 172 246 366 288 596 33 186 18 476 -37 692 -25
101 -80 262 -108 316 -18 36 -26 42 -54 42 -44 0 -238 -67 -383 -131 -687
-305 -1104 -845 -1104 -1429 0 -323 123 -614 394 -934 31 -36 52 -66 47 -66
-28 0 -211 139 -312 237 -230 224 -375 482 -441 786 -19 88 -22 132 -22 327 0
209 2 234 28 348 53 241 139 432 275 612 232 309 568 520 931 584 47 8 99 17
115 20 17 2 116 3 220 1 155 -3 210 -8 300 -28z m-136 -574 c27 -54 67 -186
88 -289 13 -68 17 -136 17 -284 0 -178 -2 -203 -26 -291 -60 -221 -177 -403
-357 -553 -42 -35 -160 -119 -261 -187 -124 -82 -210 -148 -263 -201 l-80 -78
6 108 c15 269 148 603 351 882 49 68 182 223 230 269 44 42 48 86 13 127 -30
35 -55 29 -134 -30 -125 -94 -299 -297 -406 -475 -141 -232 -237 -550 -240
-788 0 -51 -4 -90 -8 -87 -11 7 -85 201 -103 269 -52 208 -45 440 20 637 133
403 549 797 1029 974 49 18 93 33 97 33 4 1 16 -16 27 -36z"/>
<path d="M4574 5316 c-18 -13 -19 -28 -19 -210 l0 -196 -172 0 -173 0 -16 -25
c-12 -19 -15 -42 -12 -96 5 -99 5 -99 204 -99 l163 0 3 -186 c3 -181 4 -186
27 -205 30 -25 145 -27 179 -3 21 15 22 20 22 205 l0 189 169 0 c210 0 211 1
213 107 2 113 3 113 -209 113 l-173 0 0 188 c0 235 1 232 -109 232 -51 0 -84
-5 -97 -14z"/>
<path d="M10510 5899 c-68 -16 -128 -35 -132 -42 -5 -8 1 -19 19 -32 14 -11
38 -30 52 -42 l26 -21 0 -507 0 -507 -28 -24 c-15 -13 -37 -24 -48 -24 -12 0
-19 -7 -19 -20 0 -19 7 -20 195 -20 163 0 195 2 195 14 0 8 -13 23 -29 32 -16
10 -34 28 -40 41 -8 16 -11 204 -11 588 0 310 -3 570 -6 579 -8 21 -27 20
-174 -15z"/>
<path d="M9684 5870 c-181 -47 -313 -156 -394 -325 -53 -111 -65 -170 -65
-310 1 -186 53 -322 167 -435 113 -112 247 -161 442 -162 127 0 185 11 274 53
116 56 222 192 193 248 -17 32 -34 26 -72 -25 -40 -54 -95 -94 -170 -126 -77
-31 -219 -31 -303 2 -101 39 -194 142 -236 263 -43 123 -45 322 -3 452 37 117
125 224 221 268 68 32 197 31 269 -2 84 -37 158 -128 193 -234 11 -37 13 -38
53 -35 l42 3 3 63 c8 162 -95 277 -278 312 -86 16 -256 11 -336 -10z"/>
<path d="M7353 5865 c-37 -16 -73 -68 -73 -106 0 -39 41 -92 80 -106 36 -13
101 -8 133 9 26 13 57 68 57 101 0 91 -102 144 -197 102z"/>
<path d="M10983 5865 c-63 -27 -86 -133 -39 -180 57 -56 153 -55 209 3 52 54
34 144 -34 179 -32 17 -96 16 -136 -2z"/>
<path d="M12502 5860 c-67 -41 -79 -136 -22 -184 60 -50 176 -39 216 22 20 30
22 89 5 121 -32 58 -135 80 -199 41z"/>
<path d="M6007 5856 c-7 -16 8 -30 40 -40 48 -15 89 -83 172 -288 46 -112 128
-313 183 -448 159 -389 176 -427 201 -434 45 -12 76 -6 91 17 8 12 99 240 201
507 219 574 234 606 293 638 27 15 42 30 42 43 0 18 -9 19 -154 19 -162 0
-192 -8 -147 -39 61 -42 73 -60 66 -99 -3 -20 -46 -140 -95 -267 -48 -126
-111 -294 -141 -372 -29 -79 -55 -143 -58 -143 -5 0 -51 114 -253 634 -32 82
-58 159 -58 171 0 22 29 54 68 74 12 6 22 18 22 26 0 22 -465 22 -473 1z"/>
<path d="M7933 5753 c-19 -53 -64 -141 -85 -165 -12 -15 -54 -45 -93 -66 -65
-36 -70 -42 -73 -76 l-3 -36 50 0 50 0 3 -317 c3 -273 5 -322 20 -348 41 -76
103 -105 221 -105 96 0 158 24 217 85 31 32 32 37 21 59 l-13 24 -32 -19 c-49
-28 -116 -35 -155 -14 -57 29 -61 53 -61 360 l0 275 113 0 c75 0 117 4 125 12
7 7 12 31 12 55 l0 43 -127 0 -128 0 0 122 0 123 -28 3 c-19 2 -29 -2 -34 -15z"/>
<path d="M8643 5530 c-157 -28 -273 -131 -273 -243 0 -57 18 -72 86 -71 62 0
79 12 88 62 18 105 73 162 158 162 38 0 54 -6 82 -30 44 -39 58 -83 60 -179
l1 -75 -65 -13 c-229 -46 -311 -73 -373 -124 -58 -48 -80 -99 -75 -178 5 -88
33 -132 112 -171 51 -26 70 -30 140 -30 91 0 155 23 218 79 20 17 40 31 44 31
5 0 16 -15 24 -33 8 -17 30 -42 49 -54 67 -45 211 -19 239 43 11 23 10 26 -23
40 -67 28 -69 39 -75 324 -5 240 -7 258 -29 308 -13 28 -38 65 -56 81 -68 59
-217 91 -332 71z m207 -557 c0 -83 -4 -116 -18 -142 -19 -39 -72 -70 -130 -78
-75 -10 -142 52 -142 130 0 77 51 132 146 161 33 10 70 21 84 26 60 20 60 20
60 -97z"/>
<path d="M11884 5530 c-59 -12 -138 -54 -189 -101 -23 -21 -45 -39 -49 -39 -3
0 -6 29 -6 64 0 36 -4 67 -9 70 -5 3 -55 -7 -112 -23 -57 -17 -123 -35 -146
-41 -32 -8 -43 -16 -43 -30 0 -10 9 -21 19 -25 11 -3 34 -19 50 -35 l31 -28 0
-294 c-1 -318 1 -311 -59 -345 -19 -10 -34 -23 -35 -28 -1 -6 75 -11 197 -13
172 -2 197 0 197 13 0 8 -12 21 -26 27 -50 23 -54 45 -54 324 0 245 1 258 22
291 13 23 39 44 72 59 94 44 190 24 231 -46 18 -32 20 -55 23 -294 2 -143 1
-270 -3 -283 -3 -13 -22 -31 -46 -43 -73 -38 -49 -45 159 -48 161 -2 192 0
192 12 0 8 -16 23 -35 34 -19 12 -37 31 -39 44 -3 13 -7 149 -9 303 -2 269 -3
282 -26 333 -51 115 -169 169 -307 142z"/>
<path d="M13209 5525 c-221 -45 -349 -212 -349 -456 0 -268 159 -430 421 -430
146 0 239 38 318 127 43 49 50 74 27 93 -12 10 -25 4 -69 -32 -64 -52 -131
-72 -216 -64 -174 15 -277 178 -257 403 13 144 57 227 140 265 107 48 203 -8
245 -143 14 -42 27 -47 96 -35 69 12 78 22 73 79 -8 82 -69 148 -169 181 -67
22 -184 28 -260 12z"/>
<path d="M7360 5491 c-164 -41 -181 -55 -110 -91 69 -35 72 -52 68 -359 -4
-298 -7 -310 -70 -338 -71 -31 -42 -38 172 -38 155 0 204 3 208 13 2 7 -11 19
-30 27 -65 27 -63 11 -68 433 -3 245 -9 386 -15 388 -5 1 -75 -15 -155 -35z"/>
<path d="M10985 5492 c-160 -43 -172 -54 -102 -96 30 -17 49 -36 56 -57 7 -20
11 -128 11 -291 0 -295 -4 -318 -65 -344 -73 -30 -39 -39 163 -42 168 -2 192
0 192 13 0 8 -10 20 -23 26 -51 23 -52 27 -57 439 -4 332 -7 385 -20 387 -8 1
-78 -15 -155 -35z"/>
<path d="M12532 5495 c-68 -19 -130 -36 -137 -39 -18 -6 -7 -46 12 -46 8 0 30
-15 49 -34 l34 -34 0 -290 c0 -272 -1 -291 -20 -314 -10 -14 -33 -31 -50 -38
-16 -7 -30 -19 -30 -26 0 -11 37 -14 200 -14 168 0 200 2 200 15 0 8 -15 21
-34 30 -19 9 -38 24 -43 33 -4 9 -10 190 -13 402 -5 376 -5 385 -25 386 -11 1
-75 -13 -143 -31z"/>
</g>
</svg>
